<svg xmlns="http://www.w3.org/2000/svg" xmlns:xlink="http://www.w3.org/1999/xlink" width="188" height="23.991" viewBox="0 0 188 23.991">
  <defs>
    <clipPath id="clip-path">
      <rect id="Rectangle_126" data-name="Rectangle 126" width="188" height="23.991" fill="none"/>
    </clipPath>
  </defs>
  <g id="Techbairn_logo" data-name="Techbairn logo" transform="translate(0 0)">
    <g id="Group_85" data-name="Group 85" transform="translate(0 0)" clip-path="url(#clip-path)">
      <path id="Path_136" data-name="Path 136" d="M14.566,0h-12a2.57,2.57,0,1,0,0,5.141H6v16.28a2.57,2.57,0,1,0,5.141,0V5.142h3.427a2.57,2.57,0,0,0,0-5.141" transform="translate(0 -0.001)" fill="#fff"/>
      <path id="Path_137" data-name="Path 137" d="M267.556,30.694c.026.079.053.159.086.237s.069.154.108.228a2.3,2.3,0,0,0,.128.216,2.188,2.188,0,0,0,.149.2c.053.065.112.128.17.189a2.5,2.5,0,0,0,.188.169,2.394,2.394,0,0,0,.2.149c.07.046.142.091.216.13a2.275,2.275,0,0,0,.228.106,2.394,2.394,0,0,0,.237.086c.08.024.163.045.245.062a2.477,2.477,0,0,0,.249.038,2.5,2.5,0,0,0,.254.012,2.469,2.469,0,0,0,.5-.05c.082-.017.165-.038.243-.062A2.306,2.306,0,0,0,271,32.32a2.246,2.246,0,0,0,.226-.106c.074-.04.147-.084.216-.13a2.471,2.471,0,0,0,.2-.149c.065-.053.128-.109.189-.169s.115-.124.169-.189.1-.132.149-.2.089-.142.128-.216.075-.151.108-.228.06-.158.086-.237.045-.163.062-.245.029-.166.038-.249a2.648,2.648,0,0,0,0-.505c-.009-.084-.022-.168-.038-.25s-.038-.163-.062-.243-.053-.159-.086-.237-.068-.154-.108-.228-.082-.147-.128-.216-.1-.139-.149-.2-.111-.128-.169-.187a2.5,2.5,0,0,0-.189-.17,2.409,2.409,0,0,0-.2-.151,2.378,2.378,0,0,0-.216-.128c-.074-.04-.149-.075-.226-.108s-.158-.06-.238-.084a2,2,0,0,0-.243-.062,2.438,2.438,0,0,0-.25-.038,2.53,2.53,0,0,0-.505,0,2.478,2.478,0,0,0-.249.038,2.1,2.1,0,0,0-.245.062c-.079.024-.16.053-.237.084s-.154.069-.228.108-.146.082-.216.128a2.336,2.336,0,0,0-.2.151,2.43,2.43,0,0,0-.188.17,2.519,2.519,0,0,0-.17.187,2.424,2.424,0,0,0-.149.2,2.129,2.129,0,0,0-.128.216c-.04.074-.075.151-.108.228s-.06.156-.086.237-.044.161-.062.243-.029.166-.038.25a2.655,2.655,0,0,0,0,.505c.008.082.022.166.038.249s.038.165.062.245" transform="translate(-175.367 -17.952)" fill="#fff"/>
      <path id="Path_138" data-name="Path 138" d="M285.009,7.283A7.292,7.292,0,0,0,277.726,0c-.061,0-.121.005-.18.009h-7.531a2.57,2.57,0,1,0,0,5.141h7.711c.031,0,.06,0,.09,0a2.141,2.141,0,0,1-.09,4.28,2.57,2.57,0,1,0,0,5.141,2.142,2.142,0,1,1,0,4.284h-7.711a2.57,2.57,0,1,0,0,5.141h7.711a7.277,7.277,0,0,0,5.546-12,7.25,7.25,0,0,0,1.737-4.713" transform="translate(-175.366 0)" fill="#fff"/>
      <path id="Path_139" data-name="Path 139" d="M338.066,0A8.578,8.578,0,0,0,329.5,8.568V21.421a2.57,2.57,0,1,0,5.141,0V8.568a3.427,3.427,0,0,1,6.855,0V21.421a2.57,2.57,0,1,0,5.141,0V8.568A8.578,8.578,0,0,0,338.066,0" transform="translate(-216.056 0)" fill="#fff"/>
      <path id="Path_140" data-name="Path 140" d="M349.489,44.8a2.57,2.57,0,1,0,2.57,2.57,2.571,2.571,0,0,0-2.57-2.57" transform="translate(-227.479 -29.374)" fill="#fff"/>
      <path id="Path_141" data-name="Path 141" d="M148.209,14.756a2.571,2.571,0,0,0-3.538.836,6.855,6.855,0,1,1,0-7.192,2.571,2.571,0,0,0,4.374-2.7,12,12,0,1,0-10.211,18.294,11.929,11.929,0,0,0,10.211-5.7,2.571,2.571,0,0,0-.836-3.538" transform="translate(-83.169 0)" fill="#fff"/>
      <path id="Path_142" data-name="Path 142" d="M223.8,24.833a2.57,2.57,0,1,0,2.57,2.57,2.57,2.57,0,0,0-2.57-2.57" transform="translate(-145.065 -16.283)" fill="#fff"/>
      <path id="Path_143" data-name="Path 143" d="M206.382,0a2.571,2.571,0,0,0-2.57,2.57v18.85a2.57,2.57,0,1,0,5.141,0V2.571A2.571,2.571,0,0,0,206.382,0" transform="translate(-133.642 -0.001)" fill="#fff"/>
      <path id="Path_144" data-name="Path 144" d="M241.223,0a2.571,2.571,0,0,0-2.57,2.57v18.85a2.57,2.57,0,1,0,5.141,0V2.571A2.571,2.571,0,0,0,241.223,0" transform="translate(-156.488 -0.001)" fill="#fff"/>
      <path id="Path_145" data-name="Path 145" d="M397.949,18.851V5.142a2.57,2.57,0,1,0,0-5.141h-5.141a2.57,2.57,0,1,0,0,5.141V18.851a2.57,2.57,0,1,0,0,5.141h5.141a2.57,2.57,0,1,0,0-5.141" transform="translate(-255.884 -0.001)" fill="#fff"/>
      <path id="Path_146" data-name="Path 146" d="M498.851,0a2.571,2.571,0,0,0-2.57,2.57v18.85a2.57,2.57,0,0,0,5.141,0V2.57A2.571,2.571,0,0,0,498.851,0" transform="translate(-325.417 0)" fill="#fff"/>
      <path id="Path_147" data-name="Path 147" d="M525.818,2.57a2.57,2.57,0,1,0-5.141,0V12.593l-.745-1.17a2.57,2.57,0,1,0-4.337,2.76l5.483,8.617.022.032.038.055q.055.079.114.153l.016.02c.049.06.1.116.154.169l.02.02a2.556,2.556,0,0,0,.357.294l.029.019c.061.04.122.078.185.113l.013.008c.063.034.127.064.192.092l.062.026c.063.026.127.05.191.07l.053.015q.082.024.166.042l.064.014c.071.014.141.024.212.032l.047,0c.079.007.158.012.238.012s.159,0,.239-.012l.046,0c.073-.008.145-.019.218-.033l.017,0c.074-.015.148-.035.221-.057l.06-.02c.052-.017.1-.036.155-.056l.067-.027c.065-.029.13-.059.193-.093l.046-.027c.039-.022.078-.044.116-.068l.024-.017c.042-.028.083-.058.124-.088s.06-.043.088-.066.062-.053.092-.081.068-.059.1-.091.042-.045.063-.067c.036-.039.073-.077.107-.118.017-.02.032-.042.049-.063.034-.044.069-.088.1-.134.019-.028.035-.057.053-.085s.052-.081.075-.123.042-.084.063-.127.031-.061.044-.092c.022-.051.04-.1.059-.155.009-.025.02-.051.028-.076.016-.05.029-.1.042-.153.008-.03.016-.06.023-.09s.016-.088.023-.133.014-.081.019-.122.006-.073.008-.109.007-.1.008-.151c0-.01,0-.019,0-.029Z" transform="translate(-337.818 0)" fill="#fff"/>
      <path id="Path_148" data-name="Path 148" d="M449.945,8.568A8.578,8.578,0,0,0,441.376,0h-6.855a2.571,2.571,0,0,0-2.57,2.57v18.85a2.571,2.571,0,0,0,5.141,0V5.141h4.284a3.427,3.427,0,0,1,0,6.855,2.57,2.57,0,0,0,0,5.141,8.578,8.578,0,0,0,8.568-8.568" transform="translate(-283.235 0)" fill="#fff"/>
      <path id="Path_149" data-name="Path 149" d="M66.51,23.991A12,12,0,1,1,76.721,5.7,2.57,2.57,0,0,1,75.8,9.285l-8.725,4.947A2.571,2.571,0,1,1,64.541,9.76L70.473,6.4a6.858,6.858,0,1,0,1.874,9.2,2.57,2.57,0,1,1,4.374,2.7,11.927,11.927,0,0,1-10.211,5.7" transform="translate(-35.745 0)" fill="#fff"/>
      <path id="Path_150" data-name="Path 150" d="M458.482,46.71l-5.288-6.769a2.237,2.237,0,1,1,3.525-2.754l5.288,6.769a2.237,2.237,0,0,1-3.525,2.754" transform="translate(-296.854 -23.82)" fill="#fff"/>
    </g>
  </g>
</svg>
