<svg width="1440" height="231" viewBox="0 0 1440 231" fill="none" xmlns="http://www.w3.org/2000/svg">
<path d="M1160.64 220.893C1158.99 220.893 1157.58 220.397 1156.43 219.403C1155.43 218.244 1154.94 216.837 1154.94 215.182V179.421H1074.6C1072.95 179.421 1071.54 178.924 1070.39 177.931C1069.4 176.772 1068.9 175.365 1068.9 173.709V163.776C1068.9 163.113 1069.06 162.12 1069.4 160.796C1069.89 159.306 1070.64 157.816 1071.63 156.326L1146.01 51.2789C1148 48.4644 1151.05 47.0571 1155.19 47.0571H1173.04C1174.69 47.0571 1176.01 47.6366 1177 48.7955C1178.16 49.7888 1178.74 51.1133 1178.74 52.7689V157.816H1201.06C1202.87 157.816 1204.28 158.395 1205.27 159.554C1206.43 160.547 1207.01 161.872 1207.01 163.527V173.709C1207.01 175.365 1206.43 176.772 1205.27 177.931C1204.28 178.924 1202.96 179.421 1201.3 179.421H1178.74V215.182C1178.74 216.837 1178.16 218.244 1177 219.403C1176.01 220.397 1174.69 220.893 1173.04 220.893H1160.64ZM1095.43 158.312H1155.19V73.1326L1095.43 158.312Z" fill="#FCA16E"/>
<ellipse cx="978.243" cy="133.975" rx="66.3568" ry="86.9181" stroke="#D2D3D3" stroke-width="20"/>
<path d="M960.613 116.555H979.995C981.714 116.555 983.108 117.95 983.108 119.669V120.588C983.108 122.307 981.714 123.701 979.995 123.701H960.613V116.555Z" fill="#333333"/>
<path d="M960.613 140.112H979.995C981.714 140.112 983.108 141.506 983.108 143.225V144.145C983.108 145.864 981.714 147.258 979.995 147.258H960.613V140.112Z" fill="#333333"/>
<path d="M959.29 107.688V156.123C959.29 157.622 958.077 158.839 956.579 158.839H947.448C945.949 158.839 944.737 157.622 944.737 156.123V151.296H928.618C922.32 151.296 917.216 146.186 917.216 139.887V139.624L905.838 138.634V136.404H903.985V138.389H901.338V136.404H899.485V138.389H896.838V136.404H893.928V135.469C873.263 135.668 852.653 139.327 836.479 152.851C822.717 164.359 814.653 180.795 803.751 194.733C793.076 208.385 776.798 220.988 758.413 218.494C748.646 217.173 741.09 211.073 733.748 204.965C726.56 198.988 718.996 193.498 710.881 188.838C697.968 181.422 682.63 177.627 667.955 175.897V169.048C685.055 170.951 702.672 175.804 717.452 184.81C725.579 189.76 733.035 195.582 740.355 201.636C747.579 207.617 755.202 212.595 764.942 211.941C783.091 210.715 795.741 195.019 805.213 181.204C810.194 173.937 814.948 166.508 820.478 159.632C826.249 152.456 832.983 146.257 840.857 141.452C857.103 131.533 875.07 128.824 893.928 128.652V127.407H896.838V125.423H899.485V127.407H901.338V125.423H903.985V127.407H905.838V125.177L917.216 124.187V123.924C917.216 117.625 922.32 112.516 928.618 112.516H944.737V107.688C944.737 106.189 945.949 104.972 947.448 104.972H956.579C958.077 104.972 959.29 106.189 959.29 107.688Z" fill="#333333"/>
<path d="M1212.83 5V11.8849C1208 12.7024 1203.41 14.5644 1199.23 17.5709C1192.6 22.3486 1187.74 29.4515 1184.53 36.8905C1180.9 45.3104 1179.61 54.5706 1178.33 63.5764C1176.85 73.9583 1175.81 84.9086 1172.72 94.5767C1169.84 103.601 1166.57 112.479 1159.26 118.724C1153.01 123.695 1147.99 127.548 1141.36 130.278C1127.17 136.118 1111.27 137.067 1096.09 136.967C1084.09 136.89 1072.11 135.886 1060.11 135.518V136.404H1057.2V138.389H1054.56V136.404H1052.7V138.389H1050.06V136.404H1048.2V138.634L1036.83 139.624V139.887C1036.83 146.186 1031.72 151.296 1025.42 151.296H1009.3V156.123C1009.3 157.622 1008.09 158.839 1006.59 158.839H997.463C995.964 158.839 994.752 157.622 994.752 156.123V107.688C994.752 106.189 995.964 104.972 997.463 104.972H1006.59C1008.09 104.972 1009.3 106.189 1009.3 107.688V112.516H1025.42C1031.72 112.516 1036.83 117.625 1036.83 123.924V124.187L1048.2 125.177V127.407H1050.06V125.423H1052.7V127.407H1054.56V125.423H1057.2V127.407H1060.11V128.706C1074.09 129.124 1088.54 130.033 1102.55 129.77C1117.97 128.835 1131.96 128.329 1144.84 121.099C1151.63 117.28 1156.29 112.479 1160.96 105.003C1165.02 96.9661 1167.03 87.2451 1169.45 77.6732C1172.46 59.4254 1172.98 39.9242 1183.78 24.1425C1190.77 13.9195 1201.03 6.75756 1212.83 5Z" fill="#3673A2"/>
<path d="M977.248 81.0748C976.244 81.0748 975.432 80.2619 975.432 79.2582V61.5463C975.432 60.5426 976.244 59.7297 977.248 59.7297C978.251 59.7297 979.064 60.5426 979.064 61.5463V79.2582C979.064 80.2619 978.251 81.0748 977.248 81.0748Z" fill="#FFD175"/>
<path d="M952.266 91.3931C951.8 91.3931 951.337 91.216 950.98 90.8618L938.457 78.3363C937.749 77.6278 937.749 76.4765 938.457 75.768C939.166 75.0596 940.317 75.0596 941.025 75.768L953.548 88.2935C954.256 89.002 954.256 90.1533 953.548 90.8618C953.194 91.216 952.729 91.3931 952.263 91.3931H952.266Z" fill="#FFD175"/>
<path d="M1002.23 91.3931C1001.77 91.3931 1001.31 91.216 1000.95 90.8617C1000.24 90.1533 1000.24 89.002 1000.95 88.2935L1013.47 75.7726C1014.18 75.0641 1015.33 75.0641 1016.04 75.7726C1016.74 76.4811 1016.74 77.6323 1016.04 78.3408L1003.52 90.8617C1003.16 91.216 1002.7 91.3931 1002.23 91.3931H1002.23Z" fill="#FFD175"/>
<path d="M964.103 84.2538C963.438 84.2538 962.795 83.8859 962.477 83.2501L957.029 72.3505C956.579 71.4536 956.945 70.3613 957.841 69.914C958.738 69.4644 959.83 69.83 960.277 70.7269L965.726 81.6265C966.176 82.5235 965.81 83.6157 964.913 84.0631C964.652 84.1925 964.375 84.2561 964.103 84.2561V84.2538Z" fill="#FFD175"/>
<path d="M990.436 83.3455C990.164 83.3455 989.887 83.2842 989.626 83.1525C988.729 82.7029 988.366 81.613 988.813 80.716L994.262 69.8164C994.711 68.9194 995.803 68.5561 996.698 69.0034C997.594 69.4531 997.958 70.543 997.51 71.44L992.062 82.3396C991.744 82.9754 991.101 83.3433 990.436 83.3433V83.3455Z" fill="#FFD175"/>
<path d="M977.248 204.15C976.244 204.15 975.432 203.337 975.432 202.333V184.621C975.432 183.618 976.244 182.805 977.248 182.805C978.251 182.805 979.064 183.618 979.064 184.621V202.333C979.064 203.337 978.251 204.15 977.248 204.15Z" fill="#FFD175"/>
<path d="M1014.75 188.645C1014.29 188.645 1013.82 188.468 1013.47 188.114L1000.95 175.588C1000.24 174.88 1000.24 173.729 1000.95 173.02C1001.65 172.312 1002.8 172.312 1003.51 173.02L1016.04 185.546C1016.74 186.254 1016.74 187.405 1016.04 188.114C1015.68 188.468 1015.22 188.645 1014.75 188.645H1014.75Z" fill="#FFD175"/>
<path d="M939.742 188.64C939.277 188.64 938.814 188.463 938.457 188.109C937.749 187.401 937.749 186.249 938.457 185.541L950.976 173.02C951.686 172.312 952.835 172.312 953.544 173.02C954.252 173.728 954.252 174.88 953.544 175.588L941.025 188.109C940.671 188.463 940.206 188.64 939.74 188.64H939.742Z" fill="#FFC147"/>
<path d="M995.844 194.158C995.179 194.158 994.536 193.791 994.219 193.155L988.77 182.255C988.322 181.358 988.686 180.266 989.583 179.819C990.479 179.371 991.571 179.732 992.019 180.632L997.467 191.531C997.914 192.428 997.551 193.52 996.654 193.968C996.393 194.097 996.116 194.161 995.844 194.161V194.158Z" fill="#FFD175"/>
<path d="M958.606 195.067C958.334 195.067 958.057 195.005 957.796 194.874C956.899 194.424 956.536 193.334 956.983 192.437L962.432 181.538C962.881 180.641 963.971 180.277 964.868 180.725C965.765 181.174 966.128 182.264 965.681 183.161L960.232 194.061C959.914 194.697 959.272 195.064 958.606 195.064V195.067Z" fill="#FFC147"/>
<path d="M667.955 169.048C667.955 169.048 309.535 188.65 266.076 185.378C136.633 186.176 -133 174.163 -133 174.163V180.705C-133 180.705 56.7245 190.051 266.076 193.323C423.164 192.424 667.955 175.901 667.955 175.901V169.048Z" fill="#333333"/>
<path d="M1212.83 5V11.8849H1593L1480.5 5L1212.83 5Z" fill="#3673A2"/>
<path d="M836.333 220.893C834.68 220.893 833.275 220.397 832.118 219.403C831.126 218.244 830.63 216.837 830.63 215.182V179.421H750.295C748.642 179.421 747.237 178.924 746.08 177.931C745.088 176.772 744.592 175.365 744.592 173.709V163.776C744.592 163.113 744.758 162.12 745.088 160.796C745.584 159.306 746.328 157.816 747.32 156.326L821.704 51.2789C823.688 48.4644 826.746 47.0571 830.878 47.0571H848.731C850.384 47.0571 851.706 47.6366 852.698 48.7955C853.855 49.7888 854.433 51.1133 854.433 52.7689V157.816H876.749C878.567 157.816 879.972 158.395 880.964 159.554C882.121 160.547 882.699 161.872 882.699 163.527V173.709C882.699 175.365 882.121 176.772 880.964 177.931C879.972 178.924 878.65 179.421 876.997 179.421H854.433V215.182C854.433 216.837 853.855 218.244 852.698 219.403C851.706 220.397 850.384 220.893 848.731 220.893H836.333ZM771.123 158.312H830.878V73.1326L771.123 158.312Z" fill="#FCA16E"/>
<path d="M806.276 179.303L804.584 178.238L802.654 181.303H806.276H814.22H815.328L815.915 180.365L815.915 180.365L815.915 180.365L815.917 180.363L815.924 180.352L815.954 180.304C815.981 180.262 816.021 180.197 816.076 180.112C816.185 179.942 816.348 179.689 816.561 179.362C816.987 178.708 817.615 177.761 818.415 176.595C820.015 174.261 822.299 171.056 825.033 167.574C830.543 160.555 837.723 152.618 844.713 148.293C852.921 143.215 865.181 140.452 875.612 138.982C880.787 138.252 885.435 137.851 888.788 137.631C890.464 137.522 891.814 137.458 892.743 137.422C893.207 137.404 893.566 137.392 893.807 137.386C893.927 137.382 894.018 137.38 894.078 137.379L894.145 137.377L894.161 137.377L894.164 137.377L894.164 137.377L894.165 137.377L896.129 137.342V135.377V128.368V126.295L894.058 126.369L894.129 128.368C894.058 126.369 894.057 126.369 894.056 126.369L894.055 126.369L894.048 126.369L894.024 126.37L893.935 126.374C893.857 126.377 893.742 126.382 893.593 126.388C893.295 126.402 892.858 126.423 892.298 126.455C891.178 126.518 889.564 126.621 887.577 126.783C883.606 127.107 878.137 127.667 872.146 128.612C860.292 130.48 845.939 133.917 837.327 140.314C828.921 146.559 820.724 156.085 814.679 163.949C811.643 167.898 809.124 171.464 807.363 174.043C806.482 175.333 805.79 176.377 805.317 177.101C805.08 177.463 804.898 177.745 804.775 177.938C804.713 178.034 804.666 178.108 804.634 178.158L804.597 178.216L804.588 178.232L804.585 178.236L804.584 178.237C804.584 178.238 804.584 178.238 806.276 179.303Z" fill="#333333" stroke="white" stroke-width="4"/>
<path d="M803.523 183.694L806.276 179.303H814.22L811.621 183.904L803.523 183.694Z" fill="#333333"/>
<path d="M1090.46 127.771L1089.41 127.735L1088.78 128.587L1083.64 135.596L1081.43 138.611L1085.17 138.777L1085.26 136.779C1085.17 138.777 1085.17 138.777 1085.17 138.777L1085.17 138.777L1085.17 138.777L1085.18 138.778L1085.23 138.78L1085.41 138.787C1085.57 138.794 1085.81 138.803 1086.11 138.814C1086.72 138.836 1087.6 138.866 1088.69 138.895C1090.88 138.954 1093.94 139.013 1097.41 139.013C1104.31 139.013 1112.95 138.781 1119.63 137.827C1127.25 136.873 1133.45 135.205 1137.76 133.77C1139.91 133.051 1141.6 132.39 1142.75 131.905C1143.33 131.662 1143.77 131.463 1144.08 131.323C1144.23 131.252 1144.34 131.197 1144.43 131.157C1144.44 131.15 1144.46 131.143 1144.47 131.136C1144.49 131.126 1144.51 131.118 1144.52 131.111L1144.55 131.099L1144.55 131.099L1144.55 131.098L1144.55 131.098L1144.56 131.094L1144.56 131.093L1144.56 131.092L1144.56 131.092L1144.59 131.078C1144.61 131.066 1144.65 131.048 1144.7 131.024C1144.79 130.977 1144.93 130.908 1145.1 130.818C1145.45 130.638 1145.95 130.375 1146.57 130.033C1147.81 129.35 1149.53 128.354 1151.47 127.09C1155.33 124.587 1160.17 120.971 1163.86 116.611C1167.33 112.883 1169.28 109.159 1170.85 105.227C1171.55 103.459 1172.18 101.632 1172.82 99.7687C1172.89 99.5765 1172.96 99.384 1173.02 99.191C1173.74 97.1123 1174.5 94.962 1175.43 92.672L1175.48 92.5469L1175.51 92.4162C1176.91 86.9869 1177.96 79.6237 1179.07 71.8666C1179.65 67.7896 1180.25 63.6037 1180.92 59.5327C1181.91 53.5461 1183.06 47.7408 1184.56 42.6739C1186.07 37.5787 1187.88 33.3903 1190.11 30.5276L1190.19 30.4253L1190.25 30.3137C1194.69 22.7691 1200.44 18.6622 1205.05 16.4338C1207.37 15.3171 1209.4 14.672 1210.84 14.3079C1211.56 14.126 1212.12 14.0148 1212.5 13.95C1212.69 13.9177 1212.84 13.897 1212.93 13.8849C1212.97 13.8788 1213 13.8749 1213.02 13.8728L1213.03 13.8714L1213.03 13.8712L1213.04 13.871L1213.04 13.8709L1213.04 13.8708L1214.83 13.6876V11.8817V5V2.55798L1212.43 3.03922L1212.83 5C1212.43 3.03922 1212.43 3.0393 1212.43 3.03939L1212.43 3.03962L1212.43 3.04023L1212.42 3.04207L1212.39 3.04827C1212.36 3.05352 1212.33 3.06103 1212.28 3.07086C1212.19 3.0905 1212.06 3.1194 1211.89 3.15799C1211.55 3.23514 1211.07 3.35113 1210.46 3.5094C1209.24 3.82571 1207.54 4.31223 1205.56 4.99727C1201.63 6.36065 1196.52 8.5407 1192.03 11.7914L1191.98 11.8249L1191.94 11.861C1178.81 22.5583 1174.11 35.5842 1171.61 49.0282C1170.72 53.7926 1170.1 58.6759 1169.49 63.5122C1169.25 65.4397 1169 67.3597 1168.75 69.2618C1167.83 75.9923 1166.71 82.5987 1164.66 88.9696C1164.42 89.7141 1164.18 90.5778 1163.92 91.5389C1161.93 98.6828 1158.45 111.203 1142.69 120.083C1134.95 124.44 1122.05 126.416 1110.76 127.253C1105.18 127.667 1100.1 127.796 1096.41 127.822C1094.57 127.835 1093.07 127.822 1092.05 127.806C1091.53 127.798 1091.13 127.789 1090.87 127.782C1090.73 127.779 1090.63 127.776 1090.56 127.774L1090.49 127.771L1090.47 127.771L1090.46 127.771L1090.46 127.771Z" stroke="white" stroke-width="4"/>
<path d="M1090.4 129.77H1084.32L1081.05 136.312L1086.66 136.779L1090.4 129.77Z" fill="#3673A2"/>
<path d="M1217.5 5H1212.83V11.8744L1217.5 11.8927V5Z" fill="#3673A2"/>
</svg>
