<svg xmlns="http://www.w3.org/2000/svg" xmlns:xlink="http://www.w3.org/1999/xlink" width="1820" height="337" viewBox="0 0 1820 337">
  <defs>
    <clipPath id="clip-path">
      <rect id="Rectangle_304" data-name="Rectangle 304" width="1820" height="337" rx="20" transform="translate(50 221)" fill="#6d87f5"/>
    </clipPath>
    <clipPath id="clip-path-2">
      <rect id="Rectangle_305" data-name="Rectangle 305" width="493.184" height="70.957" transform="translate(0 0)" fill="none"/>
    </clipPath>
  </defs>
  <g id="Group_399" data-name="Group 399" transform="translate(-50 -221)">
    <rect id="Rectangle_158" data-name="Rectangle 158" width="1820" height="337" rx="20" transform="translate(50 221)" fill="#6d87f5"/>
    <g id="Group_398" data-name="Group 398">
      <g id="Mask_Group_11" data-name="Mask Group 11" clip-path="url(#clip-path)">
        <g id="Ellipse_26" data-name="Ellipse 26" transform="translate(0 347)" fill="#fff" stroke="#fff" stroke-width="1" opacity="0.3">
          <circle cx="211.5" cy="211.5" r="211.5" stroke="none"/>
          <circle cx="211.5" cy="211.5" r="211" fill="none"/>
        </g>
        <g id="Ellipse_27" data-name="Ellipse 27" transform="translate(1482 86)" fill="#fff" stroke="#fff" stroke-width="1" opacity="0.3">
          <circle cx="212.5" cy="212.5" r="212.5" stroke="none"/>
          <circle cx="212.5" cy="212.5" r="212" fill="none"/>
        </g>
      </g>
      <g id="Group_382" data-name="Group 382" transform="translate(713 354)">
        <g id="Group_381" data-name="Group 381" clip-path="url(#clip-path-2)">
          <path id="Path_1008" data-name="Path 1008" d="M41.952,1.444H7.4a7.4,7.4,0,1,0,0,14.806h9.871V63.138a7.4,7.4,0,0,0,14.806,0V16.25h9.871a7.4,7.4,0,0,0,0-14.806" fill="#fff"/>
          <path id="Path_1009" data-name="Path 1009" d="M57.858,37.93c.074.226.152.456.245.677s.2.441.31.653a6.405,6.405,0,0,0,.368.618,6.489,6.489,0,0,0,.426.579c.153.186.32.368.486.54s.353.333.54.485a6.905,6.905,0,0,0,.579.427c.2.133.407.26.618.373a6.437,6.437,0,0,0,.653.3,7.132,7.132,0,0,0,.677.246c.23.068.466.127.7.176a6.98,6.98,0,0,0,.711.108,7.069,7.069,0,0,0,.726.034,7.05,7.05,0,0,0,1.438-.142c.236-.049.471-.108.7-.176a6.751,6.751,0,0,0,.682-.246,6.46,6.46,0,0,0,.648-.3,6.988,6.988,0,0,0,.618-.373,7.154,7.154,0,0,0,.584-.427c.186-.152.368-.314.539-.485s.329-.354.486-.54.295-.378.427-.579.255-.407.368-.618.216-.432.309-.653.172-.451.246-.677.127-.466.176-.7.084-.476.108-.712a7.495,7.495,0,0,0,0-1.447c-.024-.24-.063-.481-.108-.716s-.107-.467-.176-.7-.152-.456-.246-.677-.2-.442-.309-.653a6.941,6.941,0,0,0-.368-.618c-.132-.2-.28-.4-.427-.584s-.319-.368-.486-.535-.353-.333-.539-.486a7.2,7.2,0,0,0-.584-.431,6.71,6.71,0,0,0-.618-.368c-.212-.113-.427-.216-.648-.309s-.451-.172-.682-.241a5.641,5.641,0,0,0-.7-.176,6.87,6.87,0,0,0-.716-.109,7.15,7.15,0,0,0-1.448,0,6.984,6.984,0,0,0-.711.109,5.907,5.907,0,0,0-.7.176c-.226.069-.456.152-.677.241s-.442.2-.653.309-.417.235-.618.368a6.951,6.951,0,0,0-.579.431c-.187.153-.368.314-.54.486s-.333.349-.486.535-.294.383-.426.584a5.752,5.752,0,0,0-.368.618c-.113.211-.216.432-.31.653s-.171.446-.245.677-.127.461-.176.7-.084.476-.108.716a7.5,7.5,0,0,0,0,1.447c.024.236.063.477.108.712s.108.471.176.7" fill="#fff"/>
          <path id="Path_1010" data-name="Path 1010" d="M107.834,22.3A20.878,20.878,0,0,0,86.98,1.444c-.175,0-.345.014-.517.026H64.9a7.36,7.36,0,1,0,0,14.72H86.98c.087,0,.172-.01.258-.012a6.129,6.129,0,0,1-.258,12.253,7.361,7.361,0,0,0,0,14.721,6.133,6.133,0,1,1,0,12.267H64.9a7.36,7.36,0,0,0,0,14.72H86.98a20.837,20.837,0,0,0,15.881-34.347A20.755,20.755,0,0,0,107.834,22.3" fill="#fff"/>
          <path id="Path_1011" data-name="Path 1011" d="M207.206,38.13c.074.226.152.456.245.677s.2.441.31.653a6.4,6.4,0,0,0,.368.618,6.493,6.493,0,0,0,.426.579c.153.186.32.368.486.54s.353.333.54.485a6.906,6.906,0,0,0,.579.427c.2.133.407.26.618.373a6.437,6.437,0,0,0,.653.3,7.131,7.131,0,0,0,.677.246c.231.068.466.127.7.176a6.98,6.98,0,0,0,.711.108,7.069,7.069,0,0,0,.726.034,7.05,7.05,0,0,0,1.438-.142c.236-.049.471-.108.7-.176a6.75,6.75,0,0,0,.682-.246,6.459,6.459,0,0,0,.648-.3,6.987,6.987,0,0,0,.618-.373,7.151,7.151,0,0,0,.584-.427c.186-.152.368-.314.539-.485s.329-.354.486-.54.295-.378.427-.579.255-.407.368-.618.216-.432.309-.653.172-.451.246-.677.127-.466.176-.7.084-.476.108-.712a7.495,7.495,0,0,0,0-1.447c-.024-.24-.063-.481-.108-.716s-.107-.467-.176-.7-.152-.456-.246-.677-.2-.442-.309-.653a6.94,6.94,0,0,0-.368-.618c-.132-.2-.28-.4-.427-.584s-.319-.368-.486-.535-.353-.333-.539-.486a7.2,7.2,0,0,0-.584-.431,6.71,6.71,0,0,0-.618-.368c-.212-.113-.427-.216-.648-.309s-.451-.172-.682-.241a5.641,5.641,0,0,0-.7-.176,6.87,6.87,0,0,0-.716-.109,7.15,7.15,0,0,0-1.448,0,6.984,6.984,0,0,0-.711.109,5.956,5.956,0,0,0-.7.176c-.226.069-.456.152-.677.241s-.442.2-.653.309-.417.235-.618.368a6.952,6.952,0,0,0-.579.431c-.187.153-.368.314-.54.486s-.333.349-.486.535-.294.383-.426.584a5.751,5.751,0,0,0-.368.618c-.113.211-.216.432-.31.653s-.171.446-.245.677-.127.461-.176.7-.084.476-.108.716a7.495,7.495,0,0,0,0,1.447c.024.236.063.477.108.712s.108.471.176.7" fill="#fff"/>
          <path id="Path_1012" data-name="Path 1012" d="M257.181,22.5A20.878,20.878,0,0,0,236.327,1.644c-.175,0-.345.014-.517.026H214.246a7.36,7.36,0,1,0,0,14.72h22.081c.087,0,.172-.01.258-.012a6.129,6.129,0,0,1-.258,12.253,7.361,7.361,0,0,0,0,14.721,6.133,6.133,0,1,1,0,12.267H214.246a7.36,7.36,0,1,0,0,14.72h22.081a20.837,20.837,0,0,0,15.881-34.347A20.755,20.755,0,0,0,257.181,22.5" fill="#fff"/>
          <path id="Path_1013" data-name="Path 1013" d="M425.171,42.6a7.372,7.372,0,1,0,7.371-7.371,7.371,7.371,0,0,0-7.371,7.371" fill="#fff"/>
          <path id="Path_1014" data-name="Path 1014" d="M452.2,35.225a7.371,7.371,0,0,0-7.371,7.371v5.042a19.649,19.649,0,1,1,1.1-22.21A7.371,7.371,0,1,0,458.47,17.68,34.363,34.363,0,1,0,445.8,65.9a7.368,7.368,0,0,0,13.773-3.644V42.6a7.371,7.371,0,0,0-7.371-7.371" fill="#fff"/>
          <path id="Path_1015" data-name="Path 1015" d="M354.916,70.957a35.109,35.109,0,1,1,35.109-35.109,35.148,35.148,0,0,1-35.109,35.109m0-55.171a20.062,20.062,0,1,0,20.062,20.062,20.085,20.085,0,0,0-20.062-20.062" fill="#fff"/>
          <path id="Path_1016" data-name="Path 1016" d="M315.034,47.568a7.515,7.515,0,1,0-15.03,0V55.11H279.965V7.515a7.515,7.515,0,1,0-15.03,0V62.624a7.514,7.514,0,0,0,7.514,7.515h35.07a7.514,7.514,0,0,0,7.515-7.515V47.568Z" fill="#fff"/>
          <path id="Path_1017" data-name="Path 1017" d="M170.217,25.744A24.915,24.915,0,0,0,145.33.857H125.421a7.466,7.466,0,0,0-7.466,7.466V63.075a7.466,7.466,0,1,0,14.932,0V15.789H145.33a9.955,9.955,0,1,1,0,19.91,7.466,7.466,0,1,0,0,14.932,24.915,24.915,0,0,0,24.887-24.887" fill="#fff"/>
          <path id="Path_1018" data-name="Path 1018" d="M155.46,67.341,140.1,47.68a6.5,6.5,0,1,1,10.238-8L165.7,59.342a6.5,6.5,0,0,1-10.239,8" fill="#fff"/>
          <line id="Line_35" data-name="Line 35" x2="23.149" transform="translate(468.035 2.999)" fill="none" stroke="#fff" stroke-linecap="round" stroke-linejoin="round" stroke-width="4"/>
          <line id="Line_36" data-name="Line 36" x2="16.315" transform="translate(468.035 10.393)" fill="none" stroke="#fff" stroke-linecap="round" stroke-linejoin="round" stroke-width="4"/>
          <line id="Line_37" data-name="Line 37" x2="9.039" transform="translate(468.035 17.786)" fill="none" stroke="#fff" stroke-linecap="round" stroke-linejoin="round" stroke-width="4"/>
        </g>
      </g>
    </g>
  </g>
</svg>
