<svg xmlns="http://www.w3.org/2000/svg" viewBox="0 0 64 64" id="growth-graph"><path d="M4 61.5h13.56c.83 0 1.5-.67 1.5-1.5V37.8c0-.83-.67-1.5-1.5-1.5H4c-.83 0-1.5.67-1.5 1.5V60c0 .83.67 1.5 1.5 1.5zm1.5-22.2h10.56v19.2H5.5V39.3zm33.28 22.2c.83 0 1.5-.67 1.5-1.5V30.38c0-.83-.67-1.5-1.5-1.5H25.22c-.83 0-1.5.67-1.5 1.5V60c0 .83.67 1.5 1.5 1.5h13.56zM26.72 31.88h10.56V58.5H26.72V31.88zM60 21.46H46.44c-.83 0-1.5.67-1.5 1.5V60c0 .83.67 1.5 1.5 1.5H60c.83 0 1.5-.67 1.5-1.5V22.96c0-.83-.67-1.5-1.5-1.5zM58.5 58.5H47.94V24.46H58.5V58.5z"></path><path d="M61.39 3.45c-.07-.18-.18-.34-.31-.48 0 0 0-.01-.01-.01h-.01a1.408 1.408 0 0 0-1.02-.44H48.72c-.83 0-1.5.67-1.5 1.5s.67 1.5 1.5 1.5h7.44C32.68 26.32 4.18 28.86 3.88 28.89c-.83.07-1.44.79-1.37 1.62.06.78.72 1.38 1.49 1.38h.12c.31-.02 30.06-2.64 54.38-24.43v7.84c0 .83.67 1.5 1.5 1.5s1.5-.67 1.5-1.5V4c0-.18-.04-.35-.1-.51 0-.02 0-.03-.01-.04z"></path></svg>