<svg xmlns="http://www.w3.org/2000/svg" xmlns:xlink="http://www.w3.org/1999/xlink" width="276" height="35.221" viewBox="0 0 276 35.221">
  <defs fill="#ffffff">
    <clipPath id="clip-path" fill="#ffffff">
      <rect id="Rectangle_14" data-name="Rectangle 14" width="276" height="35.221" fill="none"/>
    </clipPath>
  </defs>
  <g id="Logo" transform="translate(0 0)">
    <g id="Group_12" data-name="Group 12" transform="translate(0 0)" clip-path="url(#clip-path)">
      <path id="Path_18" data-name="Path 18" d="M21.384,0H3.774a3.774,3.774,0,1,0,0,7.547H8.805v23.9a3.774,3.774,0,0,0,7.547,0V7.548h5.032a3.774,3.774,0,1,0,0-7.547" transform="translate(0 -0.001)" fill="#ffffff"/>
      <path id="Path_19" data-name="Path 19" d="M267.608,32.247c.038.116.078.234.126.347s.1.226.159.335a3.381,3.381,0,0,0,.189.317,3.209,3.209,0,0,0,.219.3c.078.1.164.189.249.277a3.656,3.656,0,0,0,.276.249,3.514,3.514,0,0,0,.3.219c.1.068.209.133.317.191a3.342,3.342,0,0,0,.335.156,3.528,3.528,0,0,0,.347.126c.118.035.239.066.359.09a3.637,3.637,0,0,0,.365.056,3.675,3.675,0,0,0,.373.018,3.625,3.625,0,0,0,.737-.073c.121-.025.242-.055.357-.09a3.389,3.389,0,0,0,.35-.126,3.305,3.305,0,0,0,.332-.156c.108-.058.216-.123.317-.191a3.637,3.637,0,0,0,.3-.219c.1-.078.189-.161.277-.249s.168-.181.249-.277.151-.194.219-.3.13-.209.189-.317.111-.222.158-.335.088-.231.126-.347.066-.239.09-.36.043-.244.056-.365a3.9,3.9,0,0,0,0-.742c-.013-.123-.033-.247-.056-.367s-.055-.239-.09-.357-.078-.234-.126-.348-.1-.226-.158-.335-.121-.216-.189-.316-.144-.2-.219-.3-.163-.189-.249-.274a3.661,3.661,0,0,0-.277-.249,3.546,3.546,0,0,0-.3-.221,3.491,3.491,0,0,0-.317-.189c-.108-.058-.219-.111-.332-.159s-.232-.088-.35-.123a2.933,2.933,0,0,0-.357-.09,3.578,3.578,0,0,0-.367-.056,3.714,3.714,0,0,0-.742,0,3.639,3.639,0,0,0-.365.056,3.091,3.091,0,0,0-.359.09c-.116.035-.234.078-.347.123s-.226.1-.335.159-.214.12-.317.189a3.429,3.429,0,0,0-.3.221,3.557,3.557,0,0,0-.276.249,3.681,3.681,0,0,0-.249.274,3.554,3.554,0,0,0-.219.3,3.132,3.132,0,0,0-.189.316c-.058.109-.111.222-.159.335s-.088.229-.126.348-.065.237-.09.357-.043.244-.055.367a3.9,3.9,0,0,0,0,.742c.012.121.032.244.055.365s.056.242.09.36" transform="translate(-132.266 -13.54)" fill="#ffffff"/>
      <path id="Path_20" data-name="Path 20" d="M293.231,10.692A10.7,10.7,0,0,0,282.539,0c-.089,0-.177.008-.265.014H271.218a3.774,3.774,0,1,0,0,7.547h11.321c.045,0,.088-.006.132-.007a3.143,3.143,0,0,1-.132,6.283,3.774,3.774,0,1,0,0,7.547,3.145,3.145,0,1,1,0,6.289H271.218a3.774,3.774,0,1,0,0,7.547h11.321a10.684,10.684,0,0,0,8.143-17.61,10.643,10.643,0,0,0,2.549-6.919" transform="translate(-132.266 0)" fill="#ffffff"/>
      <path id="Path_21" data-name="Path 21" d="M342.077,0A12.593,12.593,0,0,0,329.5,12.579V31.447a3.774,3.774,0,0,0,7.547,0V12.579a5.032,5.032,0,0,1,10.063,0V31.447a3.774,3.774,0,0,0,7.547,0V12.579A12.593,12.593,0,0,0,342.077,0" transform="translate(-162.955 0)" fill="#ffffff"/>
      <path id="Path_22" data-name="Path 22" d="M350.693,44.8a3.774,3.774,0,1,0,3.774,3.774,3.774,3.774,0,0,0-3.774-3.774" transform="translate(-171.571 -22.155)" fill="#ffffff"/>
      <path id="Path_23" data-name="Path 23" d="M158.212,21.663a3.774,3.774,0,0,0-5.194,1.227,10.063,10.063,0,1,1,0-10.558,3.774,3.774,0,0,0,6.421-3.967,17.612,17.612,0,1,0-14.99,26.857,17.513,17.513,0,0,0,14.99-8.365,3.774,3.774,0,0,0-1.227-5.194" transform="translate(-62.728 0)" fill="#ffffff"/>
      <path id="Path_24" data-name="Path 24" d="M225.007,24.833a3.774,3.774,0,1,0,3.774,3.774,3.774,3.774,0,0,0-3.774-3.774" transform="translate(-109.412 -12.281)" fill="#ffffff"/>
      <path id="Path_25" data-name="Path 25" d="M207.586,0a3.774,3.774,0,0,0-3.774,3.774V31.448a3.774,3.774,0,0,0,7.547,0V3.775A3.774,3.774,0,0,0,207.586,0" transform="translate(-100.796 -0.001)" fill="#ffffff"/>
      <path id="Path_26" data-name="Path 26" d="M242.427,0a3.774,3.774,0,0,0-3.774,3.774V31.448a3.774,3.774,0,0,0,7.547,0V3.775A3.774,3.774,0,0,0,242.427,0" transform="translate(-118.027 -0.001)" fill="#ffffff"/>
      <path id="Path_27" data-name="Path 27" d="M401.559,27.675V7.548a3.774,3.774,0,1,0,0-7.547h-7.547a3.774,3.774,0,0,0,0,7.547V27.675a3.774,3.774,0,0,0,0,7.547h7.547a3.774,3.774,0,1,0,0-7.547" transform="translate(-192.994 -0.001)" fill="#ffffff"/>
      <path id="Path_28" data-name="Path 28" d="M500.055,0a3.774,3.774,0,0,0-3.774,3.774V31.447a3.774,3.774,0,0,0,7.547,0V3.774A3.774,3.774,0,0,0,500.055,0" transform="translate(-245.439 0)" fill="#ffffff"/>
      <path id="Path_29" data-name="Path 29" d="M530.792,3.774a3.774,3.774,0,0,0-7.547,0V18.488l-1.093-1.718a3.774,3.774,0,1,0-6.367,4.052l8.05,12.651.032.047.055.08c.054.077.109.152.168.224l.023.029c.072.087.148.17.226.249l.029.029a3.752,3.752,0,0,0,.524.432l.042.028c.089.059.179.115.272.165l.019.011c.092.05.186.094.281.135l.09.038c.093.038.186.073.281.1l.078.022c.08.024.161.044.243.062l.094.021c.1.02.207.036.312.048l.069.007c.116.011.232.018.349.018s.234-.007.35-.018l.068-.007c.107-.012.213-.027.319-.049l.025,0c.109-.022.217-.051.324-.083.03-.009.059-.019.088-.029.076-.025.152-.053.227-.083l.1-.04c.1-.042.191-.087.284-.137.023-.013.045-.027.068-.04.057-.032.115-.064.17-.1l.035-.024c.062-.041.122-.085.181-.129.043-.032.087-.063.129-.1s.09-.078.135-.118.1-.087.147-.133c.032-.032.062-.066.093-.1.054-.057.108-.113.157-.173.025-.03.047-.062.071-.093.051-.065.1-.129.147-.2.028-.04.052-.083.078-.125.037-.06.076-.119.11-.181s.062-.124.092-.187c.022-.045.045-.089.065-.135.032-.074.059-.151.086-.227.013-.037.029-.074.041-.112.024-.074.042-.149.061-.224.011-.044.024-.088.034-.132.014-.064.023-.129.033-.195s.02-.118.027-.178.008-.107.012-.16c.005-.074.01-.148.011-.222,0-.014,0-.028,0-.042Z" transform="translate(-254.792 0)" fill="#ffffff"/>
      <path id="Path_30" data-name="Path 30" d="M458.367,12.579A12.593,12.593,0,0,0,445.788,0H435.725a3.774,3.774,0,0,0-3.774,3.774V31.447a3.774,3.774,0,0,0,7.548,0V7.547h6.289a5.032,5.032,0,1,1,0,10.063,3.774,3.774,0,1,0,0,7.547,12.593,12.593,0,0,0,12.579-12.579" transform="translate(-213.624 0)" fill="#ffffff"/>
      <path id="Path_31" data-name="Path 31" d="M72.125,35.221A17.611,17.611,0,1,1,87.115,8.365a3.774,3.774,0,0,1-1.349,5.266L72.958,20.894a3.774,3.774,0,1,1-3.723-6.566l8.708-4.937a10.067,10.067,0,1,0,2.752,13.5,3.774,3.774,0,1,1,6.421,3.967,17.51,17.51,0,0,1-14.99,8.365" transform="translate(-26.96 0)" fill="#ffffff"/>
      <path id="Path_32" data-name="Path 32" d="M461.179,51.57l-7.763-9.938a3.284,3.284,0,1,1,5.175-4.043l7.763,9.938a3.284,3.284,0,0,1-5.176,4.043" transform="translate(-223.895 -17.966)" fill="#ffffff"/>
    </g>
  </g>
</svg>